<svg version="1" xmlns="http://www.w3.org/2000/svg" width="3200" height="3200" viewBox="0 0 2400.000000 2400.000000"><path d="M1159 .7C883.9 10.8 626.4 111.1 419 289c-44 37.7-92.1 85.8-130 130C126.4 608.5 27.5 842.3 5.1 1090.5 1.3 1131.9.6 1149.9.6 1200s.7 68.1 4.5 109.5C23.6 1514.3 94 1709.4 210.5 1879c43.2 62.8 88.9 117.4 144.7 172.6 26.5 26.3 35.1 34.4 56.3 52.9 171.8 149.7 380.4 246.8 604.5 281.4 101.1 15.6 207 18.2 309.5 7.5 227.8-23.6 444.5-112.6 623.5-255.9 194.8-156 336.1-367.7 404.5-606 51.3-178.9 60.3-370.2 25.9-553.5-73.6-392.7-340-724.3-708.4-882C1521.7 32.2 1357.7-.9 1195.5.2c-15.9.1-32.4.3-36.5.5zM853.5 365c79.4 6.8 157.5 38.7 222.6 91 62.6 50.1 113.6 118.2 147.7 197 41.7 96.6 56.2 211.6 40.1 319-8.1 53.8-24.3 109-45.8 155.3l-4 8.7-394.2-.2-394.2-.3-5.4-11.8c-70.1-155.3-67.8-340.8 6.1-493.3 19.9-40.9 41.4-74.2 70.6-109.5 10.3-12.3 45.6-48.4 51.8-52.7 3.1-2.3 3.1-2.2-2.8 9-6.6 12.6-12.7 30-16.2 45.8-2 9.2-2.2 13.3-2.2 33.5s.2 24.3 2.2 33.5c7.2 32.7 21.4 60.6 42.8 83.8 45.5 49.4 116 68 179.9 47.5 56.5-18.1 100.6-64.9 114.8-121.8 4.1-16 5.1-24.9 5.1-43s-1-27-5.1-43c-10.1-40.3-36-77-71.1-100.6-25.2-16.9-52.7-26.4-84.1-28.9-6.9-.6-12.6-1.2-12.8-1.3-.4-.5 23.1-6.9 34.7-9.6 15.4-3.6 32.5-6.1 56-8.4 8.4-.9 52.5-.6 63.5.3zm754 0c79.4 6.8 157.5 38.7 222.6 91 88.8 71.2 152.9 176.8 179.7 296.5 10.2 45.3 14.3 83 14.2 132 0 67.3-9 123.5-30 186.5-6.5 19.8-19.2 51.7-24.6 62.2l-1.5 2.8H1253l4-7.9c2.2-4.4 6.7-14.4 10.1-22.3 23.7-55.3 37.9-111.5 44.6-175.8 2.1-21.1 2.4-84.6.5-105.5-8.9-95.1-38.4-184.1-84.9-256.4-3-4.6-5.2-8.9-5-9.5.9-2.2 18.4-25.2 28.7-37.7 10.2-12.2 45.6-48.3 51.7-52.7 3-2.1 3-1.9-2.8 9.1-6.6 12.7-12.7 30.1-16.1 45.7-2 9.2-2.2 13.3-2.2 33.5s.2 24.3 2.2 33.5c7.2 32.7 21.4 60.6 42.8 83.8 45.5 49.4 116 68 179.9 47.5 56.5-18.1 100.6-65 114.8-121.8 4.1-16 5.1-24.9 5.1-43 0-18.8-1.1-27.5-5.5-44.3-14.6-55.7-56.5-100.6-111.5-119.5-12.9-4.5-27.7-7.4-43.3-8.7-6.9-.6-12.6-1.2-12.8-1.3-.4-.5 23.1-6.9 34.7-9.6 15.4-3.6 32.5-6.1 56-8.4 8.4-.9 52.5-.6 63.5.3zm-285 853c47 3.5 85.5 9.3 135 20.5 167.5 38 364.1 132.4 593 284.8 36 24 76.7 51.8 76.3 52.3-.8.8-64.6 7.3-115.8 11.9-249.8 22.1-454.5 21.5-643.5-2.1-144.1-17.9-272.9-48.1-410.5-96.2-88.4-30.9-190.7-77.7-282.6-129.3-20.3-11.4-19.8-10.2-5.3-12.8 61.8-11.4 114.3-25 236.9-61.6 64.2-19.2 96.8-28.6 123-35.4 72.6-18.9 138.6-29.7 201.5-33.1 19.1-1 72.4-.4 92 1zM697 1409.7c10.2 5.5 25.4 13.5 33.8 17.9l15.3 7.9 4.5 14.5c16.5 53.6 43.9 133.1 60.3 175.2 71.4 184.2 151.9 302.1 256 375.1 82.8 58.1 179.9 88.5 308.6 96.8 24.2 1.6 89.7 1.5 117.5 0 12.4-.7 22.6-1.4 22.7-1.5.2-.2-4.1-9-9.5-19.7-27.7-55-43.4-105-49.8-157.9-2.4-20-2.5-60.1-.1-80 4.8-39.4 16.1-80.4 33.2-119.6 9.3-21.4 35.6-71.7 41.7-79.6 1.2-1.6 3.6-1.7 37.8-.6 20.1.6 36.6 1.2 36.8 1.3.2.2-3 5.9-7.1 12.6-46.9 78.5-71.3 143.8-78.2 209.6-2.1 19.5-2 55 0 75.2 5.5 53.2 21.7 105.8 50.5 163.9 9.6 19.4 12.2 25.3 11 25.7-6 1.7-60.5 7.4-92 9.7-23 1.6-98.6 1.6-120 0-44.9-3.4-78.9-8.3-117-16.8-103.6-23.1-195.6-69-275.5-137.5-15.2-13-48.4-45.7-62.4-61.4C809.2 1802 729.4 1637 673 1420c-3.3-12.9-6.3-24.4-6.7-25.4-.4-1.6.5-1.3 5.8 1.6 3.5 2 14.7 8.1 24.9 13.5zm161.6 507.5c107.6 129.8 244.5 212.5 409.9 247.7 86.8 18.5 183.6 23.6 286 15.1 41.7-3.5 91.1-9.7 90.7-11.5-.1-.6-3.5-7.3-7.4-15-43.4-84.1-64.8-155.4-68.4-227.2l-.7-13.6 3.7.7c2.1.4 12.9 3.2 23.9 6.2 123.2 33.7 230.8 77.9 337.5 138.6 10.5 6.1 19.2 11.1 19.2 11.3 0 .7-23.2 18.7-40 31.2-176.2 130.4-384.2 210.2-601.9 230.7-67.3 6.4-143.1 6.8-210.1 1-239.7-20.4-463.9-110.2-652.2-261.2-6.5-5.2-11.8-9.6-11.8-9.7 0-.2 6-3.6 13.3-7.8 111.3-63 236-111.7 369.2-144.2 14.3-3.5 26.3-6.4 26.6-6.4.4-.1 6 6.3 12.5 14.1z"/></svg>