<svg xmlns="http://www.w3.org/2000/svg" width="33" height="26"><rect id="backgroundrect" width="100%" height="100%" x="0" y="0" fill="none" stroke="none" class="" style=""/><defs><style>.cls-1{fill:#ea4335;}.cls-2{fill:#4285f4;}.cls-3{fill:#34a853;}.cls-4{fill:#fbbc05;}.cls-5{fill:#5f6368;}</style></defs><title>Cloud_Logo_Nav</title><g class="currentLayer" style=""><title>Layer 1</title><path class="cls-1" d="M20.80468535713183,7.265921916639773 l1,0 l2.85,-2.85 l0.14,-1.21 A12.81,12.81 0 0 0 3.95468535713183,9.455921916639772 a1.55,1.55 0 0 1 1,-0.06000000000000004 l5.7,-0.9400000000000004 s0.2900000000000002,-0.4800000000000002 0.4400000000000002,-0.45 a7.11,7.11 0 0 1 9.73,-0.7400000000000004 z" id="svg_1"/><path class="cls-2" d="M28.71468535713183,9.455921916639772 a12.84,12.84 0 0 0 -3.87,-6.24 l-4,4 A7.11,7.11 0 0 1 23.45468535713183,12.855921916639772 v0.7100000000000004 a3.56,3.56 0 1 1 0,7.12 H16.33468535713183 l-0.7100000000000004,0.7200000000000004 v4.27 l0.7100000000000004,0.7100000000000004 H23.45468535713183 A9.26,9.26 0 0 0 28.71468535713183,9.455921916639772 z" id="svg_2"/><path class="cls-3" d="M9.20468535713183,26.34592191663977 h7.12 v-5.7 H9.20468535713183 a3.54,3.54 0 0 1 -1.47,-0.3200000000000003 l-1,0.3100000000000002 L3.8646853571318305,23.48592191663977 l-0.25,1 A9.21,9.21 0 0 0 9.20468535713183,26.34592191663977 z" id="svg_3"/><path class="cls-4" d="M9.20468535713183,7.8559219166397725 A9.26,9.26 0 0 0 3.6146853571318305,24.455921916639774 l4.13,-4.13 a3.56,3.56 0 1 1 4.71,-4.71 l4.13,-4.13 A9.25,9.25 0 0 0 9.20468535713183,7.8559219166397725 z" id="svg_4"/></g></svg>